<mxfile host="app.diagrams.net" agent="Mozilla/5.0 (Windows NT 10.0; Win64; x64; rv:131.0) Gecko/20100101 Firefox/131.0" version="24.7.8">
  <diagram name="Page-1" id="pAdgtYd4VqW53bE7p3AC">
    <mxGraphModel dx="2261" dy="-403" grid="1" gridSize="10" guides="1" tooltips="1" connect="1" arrows="1" fold="1" page="1" pageScale="1" pageWidth="827" pageHeight="1169" math="0" shadow="0">
      <root>
        <mxCell id="0" />
        <mxCell id="1" parent="0" />
        <mxCell id="oyd-5KRo3KwKe7Vzj_u_-2" value="&lt;font face=&quot;Comic Sans MS&quot;&gt;MariaDb&lt;/font&gt;" style="shape=cylinder3;whiteSpace=wrap;html=1;boundedLbl=1;backgroundOutline=1;size=15;fillColor=#1ba1e2;strokeColor=#006EAF;fontColor=#ffffff;" vertex="1" parent="1">
          <mxGeometry x="810" y="1210" width="60" height="80" as="geometry" />
        </mxCell>
        <mxCell id="oyd-5KRo3KwKe7Vzj_u_-3" value="backend 1- trasaction command service" style="rounded=1;whiteSpace=wrap;html=1;fillColor=#fff2cc;strokeColor=#d6b656;fontFamily=Comic Sans MS;" vertex="1" parent="1">
          <mxGeometry x="570" y="1220" width="114" height="60" as="geometry" />
        </mxCell>
        <mxCell id="oyd-5KRo3KwKe7Vzj_u_-6" value="backend n- trasaction command service" style="rounded=1;whiteSpace=wrap;html=1;fillColor=#fff2cc;strokeColor=#d6b656;fontFamily=Comic Sans MS;" vertex="1" parent="1">
          <mxGeometry x="570" y="1380" width="114" height="60" as="geometry" />
        </mxCell>
        <mxCell id="oyd-5KRo3KwKe7Vzj_u_-71" style="edgeStyle=orthogonalEdgeStyle;rounded=0;orthogonalLoop=1;jettySize=auto;html=1;entryX=0;entryY=0.5;entryDx=0;entryDy=0;fillColor=#f8cecc;strokeColor=#b85450;" edge="1" parent="1" source="oyd-5KRo3KwKe7Vzj_u_-7" target="oyd-5KRo3KwKe7Vzj_u_-3">
          <mxGeometry relative="1" as="geometry" />
        </mxCell>
        <mxCell id="oyd-5KRo3KwKe7Vzj_u_-72" style="edgeStyle=orthogonalEdgeStyle;rounded=0;orthogonalLoop=1;jettySize=auto;html=1;entryX=0;entryY=0.5;entryDx=0;entryDy=0;" edge="1" parent="1" source="oyd-5KRo3KwKe7Vzj_u_-7" target="oyd-5KRo3KwKe7Vzj_u_-6">
          <mxGeometry relative="1" as="geometry" />
        </mxCell>
        <mxCell id="oyd-5KRo3KwKe7Vzj_u_-80" value="" style="edgeStyle=orthogonalEdgeStyle;rounded=0;orthogonalLoop=1;jettySize=auto;html=1;entryX=1;entryY=0.5;entryDx=0;entryDy=0;entryPerimeter=0;" edge="1" parent="1" source="oyd-5KRo3KwKe7Vzj_u_-7" target="oyd-5KRo3KwKe7Vzj_u_-61">
          <mxGeometry relative="1" as="geometry">
            <mxPoint x="350" y="1390" as="targetPoint" />
          </mxGeometry>
        </mxCell>
        <mxCell id="oyd-5KRo3KwKe7Vzj_u_-7" value="&lt;font face=&quot;Comic Sans MS&quot;&gt;&amp;lt;&amp;lt;interface&amp;gt;&amp;gt;&lt;br&gt;prototype-orquestador&lt;br&gt;&lt;/font&gt;" style="rounded=1;whiteSpace=wrap;html=1;fillColor=#dae8fc;strokeColor=#6c8ebf;" vertex="1" parent="1">
          <mxGeometry x="370" y="1290" width="120" height="60" as="geometry" />
        </mxCell>
        <mxCell id="oyd-5KRo3KwKe7Vzj_u_-59" value="" style="group" vertex="1" connectable="0" parent="1">
          <mxGeometry x="60" y="1250" width="220" height="40" as="geometry" />
        </mxCell>
        <mxCell id="oyd-5KRo3KwKe7Vzj_u_-8" value="&lt;h1 style=&quot;font-size: 11px;&quot;&gt;&lt;font style=&quot;font-size: 11px;&quot;&gt;&lt;i style=&quot;font-size: 11px;&quot;&gt;&lt;font color=&quot;#cc0000&quot; face=&quot;Comic Sans MS&quot; style=&quot;font-size: 11px;&quot;&gt;kafka (publish-suscriber-sink)&lt;/font&gt;&lt;font face=&quot;qTu3-Z8YelwisQrcjekf&quot; style=&quot;font-size: 11px;&quot;&gt;&lt;br style=&quot;font-size: 11px;&quot;&gt;&lt;/font&gt;&lt;/i&gt;&lt;/font&gt;&lt;/h1&gt;" style="shape=mxgraph.ibm.box;prType=cloud;fontStyle=0;verticalAlign=bottom;align=center;spacingLeft=32;spacingTop=4;fillColor=#f8cecc;rounded=0;whiteSpace=wrap;html=1;strokeColor=#b85450;strokeWidth=3;dashed=0;container=0;spacing=-4;collapsible=0;expand=0;recursiveResize=0;labelPosition=center;verticalLabelPosition=top;movable=1;resizable=1;rotatable=1;deletable=1;editable=1;locked=0;connectable=1;fontSize=11;" vertex="1" parent="oyd-5KRo3KwKe7Vzj_u_-59">
          <mxGeometry width="220" height="40" as="geometry" />
        </mxCell>
        <mxCell id="oyd-5KRo3KwKe7Vzj_u_-9" value="" style="rounded=1;whiteSpace=wrap;html=1;fillColor=#f5f5f5;strokeColor=#666666;fontColor=#333333;movable=1;resizable=1;rotatable=1;deletable=1;editable=1;locked=0;connectable=1;" vertex="1" parent="oyd-5KRo3KwKe7Vzj_u_-59">
          <mxGeometry x="28" y="12.5" width="20" height="20" as="geometry" />
        </mxCell>
        <mxCell id="oyd-5KRo3KwKe7Vzj_u_-10" value="" style="rounded=1;whiteSpace=wrap;html=1;fillColor=#f5f5f5;strokeColor=#666666;fontColor=#333333;movable=1;resizable=1;rotatable=1;deletable=1;editable=1;locked=0;connectable=1;" vertex="1" parent="oyd-5KRo3KwKe7Vzj_u_-59">
          <mxGeometry x="53" y="12.5" width="20" height="20" as="geometry" />
        </mxCell>
        <mxCell id="oyd-5KRo3KwKe7Vzj_u_-11" value="" style="rounded=1;whiteSpace=wrap;html=1;fillColor=#f5f5f5;strokeColor=#666666;fontColor=#333333;movable=1;resizable=1;rotatable=1;deletable=1;editable=1;locked=0;connectable=1;" vertex="1" parent="oyd-5KRo3KwKe7Vzj_u_-59">
          <mxGeometry x="83" y="12.5" width="20" height="20" as="geometry" />
        </mxCell>
        <mxCell id="oyd-5KRo3KwKe7Vzj_u_-12" value="" style="rounded=1;whiteSpace=wrap;html=1;fillColor=#f5f5f5;strokeColor=#666666;fontColor=#333333;movable=1;resizable=1;rotatable=1;deletable=1;editable=1;locked=0;connectable=1;" vertex="1" parent="oyd-5KRo3KwKe7Vzj_u_-59">
          <mxGeometry x="113" y="12.5" width="20" height="20" as="geometry" />
        </mxCell>
        <mxCell id="oyd-5KRo3KwKe7Vzj_u_-13" value="" style="rounded=1;whiteSpace=wrap;html=1;fillColor=#fa6800;strokeColor=#C73500;fontColor=#000000;movable=1;resizable=1;rotatable=1;deletable=1;editable=1;locked=0;connectable=1;" vertex="1" parent="oyd-5KRo3KwKe7Vzj_u_-59">
          <mxGeometry x="153" y="12.5" width="20" height="20" as="geometry" />
        </mxCell>
        <mxCell id="oyd-5KRo3KwKe7Vzj_u_-14" value="" style="rounded=1;whiteSpace=wrap;html=1;fillColor=#ffe6cc;strokeColor=#d79b00;dashed=1;movable=1;resizable=1;rotatable=1;deletable=1;editable=1;locked=0;connectable=1;" vertex="1" parent="oyd-5KRo3KwKe7Vzj_u_-59">
          <mxGeometry x="188" y="12.5" width="20" height="20" as="geometry" />
        </mxCell>
        <mxCell id="oyd-5KRo3KwKe7Vzj_u_-60" value="" style="group" vertex="1" connectable="0" parent="1">
          <mxGeometry x="60" y="1337" width="220" height="40" as="geometry" />
        </mxCell>
        <mxCell id="oyd-5KRo3KwKe7Vzj_u_-61" value="&lt;h1 style=&quot;font-size: 23px;&quot;&gt;&lt;font style=&quot;font-size: 14px;&quot;&gt;&lt;i&gt;&lt;font style=&quot;font-size: 11px;&quot; face=&quot;Comic Sans MS&quot; color=&quot;#cc0000&quot;&gt;kafka (publish-suscriber-response)&lt;/font&gt;&lt;font style=&quot;font-size: 14px;&quot; face=&quot;qTu3-Z8YelwisQrcjekf&quot;&gt;&lt;br&gt;&lt;/font&gt;&lt;/i&gt;&lt;/font&gt;&lt;/h1&gt;" style="shape=mxgraph.ibm.box;prType=cloud;fontStyle=0;verticalAlign=bottom;align=center;spacingLeft=32;spacingTop=4;fillColor=#f8cecc;rounded=0;whiteSpace=wrap;html=1;strokeColor=#b85450;strokeWidth=3;dashed=0;container=0;spacing=-4;collapsible=0;expand=0;recursiveResize=0;labelPosition=center;verticalLabelPosition=top;movable=1;resizable=1;rotatable=1;deletable=1;editable=1;locked=0;connectable=1;" vertex="1" parent="oyd-5KRo3KwKe7Vzj_u_-60">
          <mxGeometry width="220" height="40" as="geometry" />
        </mxCell>
        <mxCell id="oyd-5KRo3KwKe7Vzj_u_-62" value="" style="rounded=1;whiteSpace=wrap;html=1;fillColor=#f5f5f5;strokeColor=#666666;fontColor=#333333;movable=1;resizable=1;rotatable=1;deletable=1;editable=1;locked=0;connectable=1;" vertex="1" parent="oyd-5KRo3KwKe7Vzj_u_-60">
          <mxGeometry x="28" y="12.5" width="20" height="20" as="geometry" />
        </mxCell>
        <mxCell id="oyd-5KRo3KwKe7Vzj_u_-63" value="" style="rounded=1;whiteSpace=wrap;html=1;fillColor=#f5f5f5;strokeColor=#666666;fontColor=#333333;movable=1;resizable=1;rotatable=1;deletable=1;editable=1;locked=0;connectable=1;" vertex="1" parent="oyd-5KRo3KwKe7Vzj_u_-60">
          <mxGeometry x="53" y="12.5" width="20" height="20" as="geometry" />
        </mxCell>
        <mxCell id="oyd-5KRo3KwKe7Vzj_u_-64" value="" style="rounded=1;whiteSpace=wrap;html=1;fillColor=#f5f5f5;strokeColor=#666666;fontColor=#333333;movable=1;resizable=1;rotatable=1;deletable=1;editable=1;locked=0;connectable=1;" vertex="1" parent="oyd-5KRo3KwKe7Vzj_u_-60">
          <mxGeometry x="83" y="12.5" width="20" height="20" as="geometry" />
        </mxCell>
        <mxCell id="oyd-5KRo3KwKe7Vzj_u_-65" value="" style="rounded=1;whiteSpace=wrap;html=1;fillColor=#f5f5f5;strokeColor=#666666;fontColor=#333333;movable=1;resizable=1;rotatable=1;deletable=1;editable=1;locked=0;connectable=1;" vertex="1" parent="oyd-5KRo3KwKe7Vzj_u_-60">
          <mxGeometry x="113" y="12.5" width="20" height="20" as="geometry" />
        </mxCell>
        <mxCell id="oyd-5KRo3KwKe7Vzj_u_-66" value="" style="rounded=1;whiteSpace=wrap;html=1;fillColor=#fa6800;strokeColor=#C73500;fontColor=#000000;movable=1;resizable=1;rotatable=1;deletable=1;editable=1;locked=0;connectable=1;" vertex="1" parent="oyd-5KRo3KwKe7Vzj_u_-60">
          <mxGeometry x="153" y="12.5" width="20" height="20" as="geometry" />
        </mxCell>
        <mxCell id="oyd-5KRo3KwKe7Vzj_u_-67" value="" style="rounded=1;whiteSpace=wrap;html=1;fillColor=#ffe6cc;strokeColor=#d79b00;dashed=1;movable=1;resizable=1;rotatable=1;deletable=1;editable=1;locked=0;connectable=1;" vertex="1" parent="oyd-5KRo3KwKe7Vzj_u_-60">
          <mxGeometry x="188" y="12.5" width="20" height="20" as="geometry" />
        </mxCell>
        <mxCell id="oyd-5KRo3KwKe7Vzj_u_-82" value="" style="edgeStyle=orthogonalEdgeStyle;rounded=0;orthogonalLoop=1;jettySize=auto;html=1;entryX=0.003;entryY=0.472;entryDx=0;entryDy=0;entryPerimeter=0;exitX=1;exitY=0.25;exitDx=0;exitDy=0;" edge="1" parent="1" source="oyd-5KRo3KwKe7Vzj_u_-69" target="oyd-5KRo3KwKe7Vzj_u_-8">
          <mxGeometry relative="1" as="geometry" />
        </mxCell>
        <mxCell id="oyd-5KRo3KwKe7Vzj_u_-69" value="&lt;pre dir=&quot;ltr&quot; data-ved=&quot;2ahUKEwiG6oeXtpiIAxW4QvEDHYEgEOkQ3ewLegQIBxAT&quot; aria-label=&quot;Texto traducido&quot; style=&quot;text-align:left&quot; id=&quot;tw-target-text&quot; data-placeholder=&quot;Traducción&quot; class=&quot;tw-data-text tw-text-large tw-ta&quot;&gt;&lt;span lang=&quot;en&quot; class=&quot;Y2IQFc&quot;&gt;&lt;font face=&quot;Comic Sans MS&quot;&gt;prototype bff&lt;/font&gt;&lt;/span&gt;&lt;/pre&gt;" style="rounded=1;whiteSpace=wrap;html=1;fillColor=#fff2cc;strokeColor=#d6b656;" vertex="1" parent="1">
          <mxGeometry x="-160" y="1290" width="114" height="60" as="geometry" />
        </mxCell>
        <mxCell id="oyd-5KRo3KwKe7Vzj_u_-70" value="&lt;font face=&quot;Comic Sans MS&quot;&gt;MariaDb&lt;/font&gt;" style="shape=cylinder3;whiteSpace=wrap;html=1;boundedLbl=1;backgroundOutline=1;size=15;fillColor=#1ba1e2;strokeColor=#006EAF;fontColor=#ffffff;" vertex="1" parent="1">
          <mxGeometry x="810" y="1370" width="60" height="80" as="geometry" />
        </mxCell>
        <mxCell id="oyd-5KRo3KwKe7Vzj_u_-73" value="" style="endArrow=classic;startArrow=classic;html=1;rounded=0;shape=flexArrow;fillColor=#f5f5f5;strokeColor=#666666;entryX=0;entryY=0.5;entryDx=0;entryDy=0;entryPerimeter=0;exitX=1;exitY=0.5;exitDx=0;exitDy=0;" edge="1" parent="1" source="oyd-5KRo3KwKe7Vzj_u_-6" target="oyd-5KRo3KwKe7Vzj_u_-70">
          <mxGeometry width="50" height="50" relative="1" as="geometry">
            <mxPoint x="690" y="1310" as="sourcePoint" />
            <mxPoint x="820" y="1310" as="targetPoint" />
          </mxGeometry>
        </mxCell>
        <mxCell id="oyd-5KRo3KwKe7Vzj_u_-75" value="" style="endArrow=classic;startArrow=classic;html=1;rounded=0;shape=flexArrow;fillColor=#f5f5f5;strokeColor=#666666;entryX=0;entryY=0.5;entryDx=0;entryDy=0;entryPerimeter=0;exitX=1;exitY=0.5;exitDx=0;exitDy=0;" edge="1" parent="1" source="oyd-5KRo3KwKe7Vzj_u_-3" target="oyd-5KRo3KwKe7Vzj_u_-2">
          <mxGeometry width="50" height="50" relative="1" as="geometry">
            <mxPoint x="694" y="1420" as="sourcePoint" />
            <mxPoint x="820" y="1420" as="targetPoint" />
          </mxGeometry>
        </mxCell>
        <mxCell id="oyd-5KRo3KwKe7Vzj_u_-78" style="edgeStyle=orthogonalEdgeStyle;rounded=0;orthogonalLoop=1;jettySize=auto;html=1;entryX=0;entryY=0.25;entryDx=0;entryDy=0;" edge="1" parent="1" source="oyd-5KRo3KwKe7Vzj_u_-8" target="oyd-5KRo3KwKe7Vzj_u_-7">
          <mxGeometry relative="1" as="geometry" />
        </mxCell>
        <mxCell id="oyd-5KRo3KwKe7Vzj_u_-83" value="" style="edgeStyle=orthogonalEdgeStyle;rounded=0;orthogonalLoop=1;jettySize=auto;html=1;entryX=1;entryY=0.75;entryDx=0;entryDy=0;" edge="1" parent="1" source="oyd-5KRo3KwKe7Vzj_u_-61" target="oyd-5KRo3KwKe7Vzj_u_-69">
          <mxGeometry relative="1" as="geometry" />
        </mxCell>
      </root>
    </mxGraphModel>
  </diagram>
</mxfile>
